<svg xmlns="http://www.w3.org/2000/svg" id="bfca6550-aec3-4c0b-b342-e4bc13b78253" width="840.5" height="427.813" data-name="Layer 1" viewBox="0 0 840.5 427.813"><ellipse cx="180.872" cy="328.665" fill="#e6e6e6" rx="29.099" ry="59.374"/><path fill="#3f3d56" d="M363.30943,661.99829c-11.65458-69.92526-.11734-139.59789.00056-140.29293l2.267.384c-.11734.69168-11.58834,69.99825.00056,139.53165Z" transform="translate(-179.75 -236.14703)"/><rect width="29.841" height="2.3" x="358.706" y="558.946" fill="#3f3d56" transform="translate(-399.75211 6.28694) rotate(-28.1416)"/><rect width="2.3" height="29.842" x="344.704" y="552.229" fill="#3f3d56" transform="translate(-497.13412 368.28467) rotate(-61.84204)"/><rect width="47.694" height="165.095" x="720.059" y="3.963" fill="#3f3d56"/><polygon fill="#3f3d56" points="799.25 138 683.25 0 450.404 2.129 309.156 139.707 312.01 141.542 310.991 141.542 310.991 427.706 798.937 427.706 798.937 141.542 799.25 138"/><polygon fill="#463f98" points="683.371 .294 538.455 170.193 538.455 427.706 798.937 427.706 798.937 137.873 683.371 .294"/><rect width="53.197" height="47.02" x="643.015" y="285.298" fill="#3f3d56"/><rect width="53.197" height="46.275" x="643.015" y="203.911" fill="#3f3d56"/><rect width="53.197" height="47.02" x="643.015" y="285.298" fill="#fff"/><rect width="53.197" height="46.275" x="643.015" y="203.911" fill="#fff"/><path fill="#e6e6e6" d="M682.07942,655.46236s1.14042-23.89608,24.51916-21.11849" transform="translate(-179.75 -236.14703)"/><circle cx="495.724" cy="384.874" r="11.701" fill="#463f98"/><rect width="3.303" height="23.12" x="493.82" y="404.578" fill="#e6e6e6"/><ellipse cx="110.955" cy="237.096" fill="#463f98" rx="56.915" ry="116.129"/><path fill="#3f3d56" d="M297.04464,663.14809c-22.76458-136.5853-.22962-272.67317.00057-274.03181l2.267.384c-.22962,1.35528-22.69834,137.0771.00056,273.27052Z" transform="translate(-179.75 -236.14703)"/><rect width="58.368" height="2.3" x="286.957" y="462.869" fill="#3f3d56" transform="translate(-361.23295 -32.18428) rotate(-28.1416)"/><rect width="2.3" height="58.368" x="260.67" y="448.633" fill="#3f3d56" transform="translate(-462.75097 247.02458) rotate(-61.84258)"/><ellipse cx="245.754" cy="167.201" fill="#463f98" rx="77.883" ry="158.914"/><path fill="#3f3d56" d="M434.59671,663.14809c-31.1399-186.83717-.3144-372.9922.00056-374.85051l2.267.384c-.3144,1.85494-31.07366,187.64393.00056,374.08922Z" transform="translate(-179.75 -236.14703)"/><rect width="79.871" height="2.3" x="420.375" y="389.575" fill="#3f3d56" transform="translate(-309.62058 27.14913) rotate(-28.1416)"/><rect width="2.3" height="79.871" x="384.826" y="369.67" fill="#3f3d56" transform="translate(-337.04307 320.472) rotate(-61.84329)"/><rect width="840.5" height="2" y="425.813" fill="#3f3d56"/><rect width="53.197" height="47.02" x="406.602" y="272.821" fill="#3f3d56"/><rect width="53.197" height="46.275" x="406.602" y="191.434" fill="#3f3d56"/><rect width="53.197" height="47.02" x="406.602" y="272.821" fill="#fff"/><rect width="53.197" height="46.275" x="406.602" y="191.434" fill="#fff"/></svg>